<mxfile host="app.diagrams.net" modified="2022-09-03T09:27:14.489Z" agent="5.0 (Windows NT 10.0; Win64; x64) AppleWebKit/537.36 (KHTML, like Gecko) Chrome/104.0.0.0 Safari/537.36" etag="6hn9E638bmtwMFaTd9Fs" version="20.2.8" type="github">
  <diagram id="5mcrVeM2arS0IbeSGEN9" name="第 1 页">
    <mxGraphModel dx="1025" dy="689" grid="1" gridSize="10" guides="1" tooltips="1" connect="1" arrows="1" fold="1" page="1" pageScale="1" pageWidth="827" pageHeight="1169" math="0" shadow="0">
      <root>
        <mxCell id="0" />
        <mxCell id="1" parent="0" />
        <mxCell id="FErQs21junsfjnVR72bT-1" value="any" style="rounded=1;whiteSpace=wrap;html=1;fillColor=#e51400;fontColor=#ffffff;strokeColor=#B20000;" vertex="1" parent="1">
          <mxGeometry x="130" y="120" width="110" height="40" as="geometry" />
        </mxCell>
        <mxCell id="FErQs21junsfjnVR72bT-3" value="unknown" style="rounded=1;whiteSpace=wrap;html=1;fillColor=#e51400;fontColor=#ffffff;strokeColor=#B20000;" vertex="1" parent="1">
          <mxGeometry x="280" y="120" width="110" height="40" as="geometry" />
        </mxCell>
        <mxCell id="FErQs21junsfjnVR72bT-4" value="Object" style="rounded=1;whiteSpace=wrap;html=1;fillColor=#008a00;fontColor=#ffffff;strokeColor=#005700;" vertex="1" parent="1">
          <mxGeometry x="130" y="180" width="260" height="40" as="geometry" />
        </mxCell>
        <mxCell id="FErQs21junsfjnVR72bT-5" value="String" style="rounded=1;whiteSpace=wrap;html=1;fillColor=#60a917;fontColor=#ffffff;strokeColor=#2D7600;" vertex="1" parent="1">
          <mxGeometry x="130" y="240" width="80" height="40" as="geometry" />
        </mxCell>
        <mxCell id="FErQs21junsfjnVR72bT-6" value="Boolean" style="rounded=1;whiteSpace=wrap;html=1;fillColor=#60a917;fontColor=#ffffff;strokeColor=#2D7600;" vertex="1" parent="1">
          <mxGeometry x="220" y="240" width="80" height="40" as="geometry" />
        </mxCell>
        <mxCell id="FErQs21junsfjnVR72bT-7" value="Number" style="rounded=1;whiteSpace=wrap;html=1;fillColor=#60a917;fontColor=#ffffff;strokeColor=#2D7600;" vertex="1" parent="1">
          <mxGeometry x="310" y="240" width="80" height="40" as="geometry" />
        </mxCell>
        <mxCell id="FErQs21junsfjnVR72bT-8" value="string" style="rounded=1;whiteSpace=wrap;html=1;fillColor=#1ba1e2;fontColor=#ffffff;strokeColor=#006EAF;" vertex="1" parent="1">
          <mxGeometry x="130" y="300" width="80" height="40" as="geometry" />
        </mxCell>
        <mxCell id="FErQs21junsfjnVR72bT-9" value="boolean" style="rounded=1;whiteSpace=wrap;html=1;fillColor=#1ba1e2;fontColor=#ffffff;strokeColor=#006EAF;" vertex="1" parent="1">
          <mxGeometry x="220" y="300" width="80" height="40" as="geometry" />
        </mxCell>
        <mxCell id="FErQs21junsfjnVR72bT-10" value="number" style="rounded=1;whiteSpace=wrap;html=1;fillColor=#1ba1e2;fontColor=#ffffff;strokeColor=#006EAF;" vertex="1" parent="1">
          <mxGeometry x="310" y="300" width="80" height="40" as="geometry" />
        </mxCell>
        <mxCell id="FErQs21junsfjnVR72bT-11" value="&quot;heora&quot;" style="rounded=1;whiteSpace=wrap;html=1;fillColor=#dae8fc;strokeColor=#6c8ebf;" vertex="1" parent="1">
          <mxGeometry x="130" y="360" width="80" height="40" as="geometry" />
        </mxCell>
        <mxCell id="FErQs21junsfjnVR72bT-12" value="true" style="rounded=1;whiteSpace=wrap;html=1;fillColor=#dae8fc;strokeColor=#6c8ebf;" vertex="1" parent="1">
          <mxGeometry x="220" y="360" width="80" height="40" as="geometry" />
        </mxCell>
        <mxCell id="FErQs21junsfjnVR72bT-13" value="24" style="rounded=1;whiteSpace=wrap;html=1;fillColor=#dae8fc;strokeColor=#6c8ebf;" vertex="1" parent="1">
          <mxGeometry x="310" y="360" width="80" height="40" as="geometry" />
        </mxCell>
        <mxCell id="FErQs21junsfjnVR72bT-14" value="never" style="rounded=1;whiteSpace=wrap;html=1;fillColor=#f5f5f5;fontColor=#333333;strokeColor=#666666;" vertex="1" parent="1">
          <mxGeometry x="130" y="420" width="260" height="40" as="geometry" />
        </mxCell>
        <mxCell id="FErQs21junsfjnVR72bT-15" value="Top Type" style="text;html=1;strokeColor=none;fillColor=none;align=left;verticalAlign=middle;whiteSpace=wrap;rounded=0;" vertex="1" parent="1">
          <mxGeometry x="420" y="125" width="60" height="30" as="geometry" />
        </mxCell>
        <mxCell id="FErQs21junsfjnVR72bT-16" value="顶级原型" style="text;html=1;strokeColor=none;fillColor=none;align=left;verticalAlign=middle;whiteSpace=wrap;rounded=0;" vertex="1" parent="1">
          <mxGeometry x="420" y="185" width="60" height="30" as="geometry" />
        </mxCell>
        <mxCell id="FErQs21junsfjnVR72bT-17" value="装箱类型" style="text;html=1;strokeColor=none;fillColor=none;align=left;verticalAlign=middle;whiteSpace=wrap;rounded=0;" vertex="1" parent="1">
          <mxGeometry x="420" y="245" width="60" height="30" as="geometry" />
        </mxCell>
        <mxCell id="FErQs21junsfjnVR72bT-18" value="基础类型（拆箱类型）" style="text;html=1;strokeColor=none;fillColor=none;align=left;verticalAlign=middle;whiteSpace=wrap;rounded=0;" vertex="1" parent="1">
          <mxGeometry x="420" y="305" width="130" height="30" as="geometry" />
        </mxCell>
        <mxCell id="FErQs21junsfjnVR72bT-19" value="对应的字面量类型" style="text;html=1;strokeColor=none;fillColor=none;align=left;verticalAlign=middle;whiteSpace=wrap;rounded=0;" vertex="1" parent="1">
          <mxGeometry x="420" y="365" width="130" height="30" as="geometry" />
        </mxCell>
        <mxCell id="FErQs21junsfjnVR72bT-20" value="Bottom Type" style="text;html=1;strokeColor=none;fillColor=none;align=left;verticalAlign=middle;whiteSpace=wrap;rounded=0;" vertex="1" parent="1">
          <mxGeometry x="420" y="425" width="110" height="30" as="geometry" />
        </mxCell>
      </root>
    </mxGraphModel>
  </diagram>
</mxfile>
